# xmcd
#
# Track frame offsets: 
#        150
#        12497
#        26308
#        39257
#        52866
#        65970
#        84035
#        105333
#        117057
#        132464
#        147929
#        160086
#        170899
#        186758
#        211274
#        229826
#        246958
#        260530
#
# Disc length: 3698 seconds
#
# Revision: 0
# Processed by: cddbd v1.5.2PL0 Copyright (c) Steve Scherf et al.
# Submitted via: ExactAudioCopy v0.99pb4
#
DISCID=ef0e7012
DTITLE=Various Artist - Radio 2 - 1000 Klassiekers - Vol. 8 - CD2
DYEAR=2016
DGENRE=Chanson
TTITLE0=Milow - You Don't Know
TTITLE1=Amy Macdonald - This Is The Life
TTITLE2=Paul Severs - Zeg 'ns Meisje
TTITLE3=The Dinky Toys Feat. Bea Luna - Declaración De Amor
TTITLE4=Belle Perez - El Mundo Bailando
TTITLE5=Isabelle A - Blank Of Zwart
TTITLE6=Bill Medley and Jennifer Warnes - (I've Had) The Time Of My Life
TTITLE7=Sutherland Brothers and Quiver - Arms Of Mary
TTITLE8=Benny Neyman - Ik Weet Niet Hoe
TTITLE9=John Paul Young - Love Is In The Air
TTITLE10=Elvis Presley - Love Me Tender
TTITLE11=Louis Neefs - Ik Heb Zorgen
TTITLE12=Orchestral Manoeuvres In The Dark - Enola Gay
TTITLE13=Frankie Goes To Hollywood - The Power Of Love
TTITLE14=Clouseau - Domino
TTITLE15=Editors - No Sound But The Wind (Live At Rock Werchter 2010)
TTITLE16=Toy - Suspicion
TTITLE17=Fixkes - Kvraagetaan
EXTD=
EXTT0=
EXTT1=
EXTT2=
EXTT3=
EXTT4=
EXTT5=
EXTT6=
EXTT7=
EXTT8=
EXTT9=
EXTT10=
EXTT11=
EXTT12=
EXTT13=
EXTT14=
EXTT15=
EXTT16=
EXTT17=
PLAYORDER=
